{"title":"Shadow Peolple 2012 BRRIP Xvid AC3-BHRG","uid":8356639,"size":1525134005,"categoryP":"video","categoryS":"movies","magnet":"?xt=urn:btih:d8b8b6fbaa66508f2d3f463034b5e925feeb45c2&amp;dn=Shadow+Peolple+2012+BRRIP+Xvid+AC3-BHRG&amp;tr=udp%3A%2F%2Ftracker.openbittorrent.com%3A80&amp;tr=udp%3A%2F%2Fopen.demonii.com%3A1337&amp;tr=udp%3A%2F%2Ftracker.coppersurfer.tk%3A6969&amp;tr=udp%3A%2F%2Fexodus.desync.com%3A6969","seeders":0,"leechers":1,"uploader":"Gh0stNet","files":3,"time":1365516520,"description":"File size                        : 1.40 GiB\nDuration                         : 1h 28mn\nOverall bit rate                 : 2 251 Kbps\n\nVideo\nID                               : 0\nFormat                           : MPEG-4 Visual\nFormat profile                   : Advanced Simple@L5\nFormat settings, BVOP            : 2\nFormat settings, QPel            : No\nFormat settings, GMC             : No warppoints\nFormat settings, Matrix          : Default (H.263)\nCodec ID                         : XVID\nCodec ID/Hint                    : XviD\nDuration                         : 1h 28mn\nBit rate                         : 1 796 Kbps\nWidth                            : 720 pixels\nHeight                           : 304 pixels\nDisplay aspect ratio             : 2.35:1\nFrame rate                       : 23.976 fps\nColor space                      : YUV\nChroma subsampling               : 4:2:0\nBit depth                        : 8 bits\nScan type                        : Progressive\nCompression mode                 : Lossy\nBits/(Pixel*Frame)               : 0.342\nStream size                      : 1.12 GiB (80%)\nWriting library                  : XviD 1.2.1 (UTC 2008-12-04)\n\nAudio\nID                               : 1\nFormat                           : AC-3\nFormat/Info                      : Audio Coding 3\nMode extension                   : CM (complete main)\nCodec ID                         : 2000\nDuration                         : 1h 28mn\nBit rate mode                    : Constant\nBit rate                         : 448 Kbps\nChannel(s)                       : 6 channels\nChannel positions                : Front: L C R, Side: L R, LFE\nSampling rate                    : 48.0 KHz\nBit depth                        : 16 bits\nCompression mode                 : Lossy\nStream size                      : 285 MiB (20%)\nAlignment                        : Aligned on interleaves\nInterleave, duration             : 64 ms (1.53 video frames)\nInterleave, preload duration     : 192 ms\nTitle                            : data-shadowpeople720 - [1] English_new\n\nIMDB  &lt;a href=&quot;\nhttp://www.imdb.com/title/tt1764647/&quot; rel=&quot;nofollow&quot; target=&quot;_NEW&quot;&gt;\nhttp://www.imdb.com/title/tt1764647/&lt;/a&gt;\n\nsource Shadow People 2012 720p BluRay x264-DATA thanks\nsample\n\nScreens:\n &lt;a href=&quot;\nhttp://i.imgur.com/UpNMyLl.png&quot; rel=&quot;nofollow&quot; target=&quot;_NEW&quot;&gt;\nhttp://i.imgur.com/UpNMyLl.png&lt;/a&gt; &lt;a href=&quot;\nhttp://i.imgur.com/F7pVpzM.png&quot; rel=&quot;nofollow&quot; target=&quot;_NEW&quot;&gt;\nhttp://i.imgur.com/F7pVpzM.png&lt;/a&gt; &lt;a href=&quot;\nhttp://i.imgur.com/tTDPCjq.png&quot; rel=&quot;nofollow&quot; target=&quot;_NEW&quot;&gt;\nhttp://i.imgur.com/tTDPCjq.png&lt;/a&gt; &lt;a href=&quot;\nhttp://i.imgur.com/GMGpSoB.png&quot; rel=&quot;nofollow&quot; target=&quot;_NEW&quot;&gt;\nhttp://i.imgur.com/GMGpSoB.png&lt;/a&gt;","torrent":{"xt":"urn:btih:d8b8b6fbaa66508f2d3f463034b5e925feeb45c2","amp;dn":"Shadow+Peolple+2012+BRRIP+Xvid+AC3-BHRG","amp;tr":["udp%3A%2F%2Ftracker.openbittorrent.com%3A80","udp%3A%2F%2Fopen.demonii.com%3A1337","udp%3A%2F%2Ftracker.coppersurfer.tk%3A6969","udp%3A%2F%2Fexodus.desync.com%3A6969"],"infoHash":"d8b8b6fbaa66508f2d3f463034b5e925feeb45c2","infoHashBuffer":{"type":"Buffer","data":[216,184,182,251,170,102,80,143,45,63,70,48,52,181,233,37,254,235,69,194]},"announce":[],"urlList":[]}}